<?xml version="1.0" encoding="utf-8"?>
<!-- Generator: Adobe Illustrator 19.1.0, SVG Export Plug-In . SVG Version: 6.00 Build 0)  -->
<svg version="1.1" id="Layer_1" xmlns="http://www.w3.org/2000/svg" xmlns:xlink="http://www.w3.org/1999/xlink" x="0px" y="0px"
	 viewBox="0 0 288 360" style="enable-background:new 0 0 288 360;" xml:space="preserve">
<style type="text/css">
	.st0{fill:#F47920;}
	.st1{fill:#F47920;stroke:#F47920;stroke-width:3;stroke-miterlimit:10;}
	.st2{fill:none;stroke:#FFFFFF;stroke-width:3.25;stroke-linecap:round;stroke-miterlimit:10;}
	.st3{fill:none;stroke:#F47920;stroke-width:4;stroke-miterlimit:10;}
</style>
<g>
	<g>
		<circle class="st0" cx="185.8" cy="86" r="4.8"/>
		<circle class="st0" cx="159" cy="77.1" r="4.8"/>
		<circle class="st0" cx="212.8" cy="95.1" r="4.8"/>
		<circle class="st0" cx="221" cy="122.1" r="4.8"/>
		<circle class="st0" cx="159" cy="131.1" r="4.8"/>
		<circle class="st0" cx="195.1" cy="140.1" r="4.8"/>
		<circle class="st0" cx="158.9" cy="185.6" r="4.8"/>
		<circle class="st0" cx="195.7" cy="203.6" r="4.8"/>
		<circle class="st0" cx="186" cy="263.5" r="4.8"/>
		<circle class="st0" cx="159.2" cy="249.1" r="4.8"/>
		<circle class="st0" cx="159" cy="221.6" r="4.8"/>
		<circle class="st0" cx="212.7" cy="212.3" r="4.8"/>
		<circle class="st0" cx="230.8" cy="203.8" r="4.8"/>
		<circle class="st0" cx="203.1" cy="249.1" r="4.8"/>
	</g>
	<path class="st0" d="M102.5,248.5c0,0,1.1,5.1,0.2,9.6s-8.2,21,1.8,20.9s4.8-14.9,2.6-20.9c-1.3-6.2,0.3-10,0.3-10"/>
	<path class="st0" d="M78.3,244.7c0,0-19.9,35.9-0.6,36.1C97,281,78.3,244.7,78.3,244.7z"/>
	<path class="st1" d="M140.5,59.7v210.1c0,0-17,6.7-31.3-0.5s-18.6-16.6-25.9-25c-7.2-8.4-17.7-14.4-20.9-22.5
		c-3.1-8.1-3.1-18.9-5.6-29.3c-2.5-10.3-4.9-13-4.5-38.3s8.1-32.3,10.1-38c2-5.6,1.6-15,6.5-23.8s14.1-14.3,20.4-20.9
		c6.2-6.6,13.3-20.1,27.9-21.4C131.8,48.8,140.5,59.7,140.5,59.7z"/>
	<path class="st0" d="M118.9,269c0,0,1.6,7.3,0.3,13.6c-1.3,6.3-11.7,29.8,2.5,29.6s6.8-21.1,3.7-29.6c-1.9-8.8,0.4-14.2,0.4-14.2"
		/>
	<path class="st2" d="M117.2,63.9C123,88.8,99,75.8,95.5,91.8c-3.5,16,14.8,13.3,14.8,13.3"/>
	<path class="st2" d="M71.6,145.5c0,0,14,4.3,12.5,13c-1.5,8.7-14.2,15.2-9.1,25.6c5.2,10.4,13.7,9.7,16.5,9
		c7.7-2,10.8-21.6,12.4-30.5c2.2-12.2,19.8-6.7,22.7-15.1s-11.9-14.4-11.9-14.4"/>
	<path class="st2" d="M114.4,237c0,0-15.6,12.2,8.4,20.2"/>
	<path class="st2" d="M115.1,154.3c0,0,19.7,1.8,3.9,21.6"/>
	<path class="st2" d="M143.4,104.2c0,0-29.1-11.2-35.9,6.9s-18.4,20.3-29.1,1.8"/>
	<path class="st2" d="M142.5,203.8c0,0-21.6-13.3-30.2,0s8.4,11.1,6.8,24.7c-1.6,13.6-19.8,14.8-21.5,0.1S84,212.7,77.9,213.2"/>
	<g>
		<polyline class="st3" points="140.5,59.7 150.3,50 176.7,50 212.8,86.3 212.9,98.5 		"/>
		<polyline class="st3" points="159,76.8 176.7,76.9 186,86 		"/>
		<polyline class="st3" points="195,203.8 194.9,185.8 230.8,185.8 230.8,158.8 167.5,158.9 158.8,167.1 158.8,185.8 		"/>
		<line class="st3" x1="159.1" y1="221.6" x2="159.1" y2="249.1"/>
		<polyline class="st3" points="203.8,249.1 203.8,249.1 231.1,222 231,204 		"/>
		<polyline class="st3" points="140.5,269.3 177.1,269.4 186.2,262.9 		"/>
		<polyline class="st3" points="194.7,140.8 167.8,140.8 158.8,131.8 		"/>
		<polyline class="st3" points="142,103.7 166.8,103.7 185.3,122 220.6,122.1 		"/>
		<polyline class="st3" points="141.8,203.6 176.7,203.6 176.7,230.6 194.7,230.4 212.7,212.7 		"/>
	</g>
</g>
</svg>
